<?xml version="1.0" encoding="UTF-8"?>
<svg id="Capa_1" data-name="Capa 1" xmlns="http://www.w3.org/2000/svg" viewBox="0 0 840 840">
  <defs>
    <style>
      .cls-1 {
        stroke: #000;
        stroke-miterlimit: 10;
        stroke-width: 14px;
      }
    </style>
  </defs>
  <path class="cls-1" d="m779.45,129.49c-28.22-5.34-54.94-10.79-81.81-15.25-9-1.49-14.25-5.62-19-13.19-34.23-54.63-97.17-82.92-158.85-71.98-62.57,11.09-112.48,58.04-125.93,120.66-3.1,14.45-3.36,30.63-.35,45.06,6.93,33.23,37.54,48.58,70.55,37.92,38.07-12.3,73.54-59.47,55.48-107.74-2.37-6.34-3.44-12.83,4.62-15.56,7.93-2.69,11.06,3.12,13.51,9.36,25.54,65.11-34.17,143.24-103.59,135.55-2.28-.25-4.61-.03-7.56-.03-1.63,10.75-2.76,21.54-4.94,32.12-11.27,54.62-44.19,95.61-83.92,132.22-25.29,23.3-51.36,45.82-75.72,70.05-37.77,37.58-61.28,82.27-57.27,137.1,1.66,22.76,8,45.18,12.37,67.72.66,3.42,2.31,6.63,3.29,10,1.84,6.37,3,13.85-5.45,14.87-3.82.46-10.95-4.64-12.21-8.6-5.88-18.55-11.47-37.36-14.9-56.49-12.19-67.9,8.1-125.99,56.53-174.12,26.31-26.15,54.38-50.54,81.47-75.92,34.95-32.75,64.8-68.9,76.1-117.06,1.25-5.32,2.49-10.65,3.32-16.05,2.09-13.53,1.98-24.22-10.79-35.68-24.6-22.08-26.36-53.09-20.6-83.78,13.21-70.33,67.68-125.12,137.1-139.23,69.91-14.22,141.13,14.76,180.9,74.06,4.22,6.29,8.36,9.88,16.25,11.19,27.32,4.53,54.44,10.33,81.7,15.26,7.56,1.37,11.75,5.08,10.3,12.59-7.66,39.67-20.5,76.99-50.16,106.33-23.4,23.14-51.61,34.41-84.41,34.45-5.44,0-10.87,0-16.91,0,3.75,17.34,8.25,34.15,10.91,51.24,10.2,65.69-.14,129.3-22.05,191.22-10.79,30.5-25.49,59.65-35.5,90.37-9.02,27.66-15.41,56.38-20.41,85.07-3.91,22.48,2.12,42.43,21.5,58.36,23.55,19.36,39.44,45.17,51.64,73.05,5.4,12.33,2.04,17.41-11.74,17.46-32.84.12-65.68-.01-98.52.05-6.8.01-13.49-1.08-13.67-9.2-.21-9.08,6.97-9.79,14.14-9.76,24.24.09,48.48.03,72.72.03,4.2,0,8.4,0,14.66,0-9.18-20.39-19.57-38.42-35.47-50.46-39.83-30.18-40.83-70.52-29.72-112.11,10.42-39.03,25.3-76.97,39.85-114.76,19.2-49.84,34.31-100.43,37.07-154.13,2.03-39.5-3.38-77.93-16.77-115.12-1.32-3.66-5.59-7.03-9.32-8.88-9.76-4.85-20.05-8.64-30-13.14-6.99-3.16-14.86-7.35-9.82-16.43,4.62-8.32,11.94-4.04,18.4-.62,19.89,10.51,40.86,17.5,63.54,18.51,38.92,1.73,68.65-14.82,90.76-46.07,14.66-20.72,23.03-44.06,28.69-70.51Z"/>
  <path class="cls-1" d="m423.8,740.42c31.74,15.11,49.41,38.44,51.43,72.56.97,16.34-1.66,19.12-18.2,19.12-86.39,0-172.78.1-259.17-.19-7.6-.03-15.66-1.41-22.71-4.19C40.52,774.84-3.97,601.32,88.41,490.24c4.31-5.18,9.23-9.66,15.79-4.56,7.25,5.64,3.38,11.57-1.09,17.14-31.06,38.74-45.36,82.91-44.23,132.57,1.71,75.14,54.99,150.15,125.66,175.52,3.95,1.42,8.35,2.2,12.54,2.21,82.87.13,165.74.1,248.62.06,3.02,0,6.04-.48,8.97-.73,1-26.41-21.06-51.56-48.49-56.93-5.09-1-9.6-4.89-14.39-7.45,3.13-4.84,5.28-10.92,9.55-14.33,30.09-24.03,45.11-55.03,40.94-93.27-4.38-40.12-26.54-68.33-63.73-84.44-1.43-.62-2.85-1.33-4.35-1.74-6.75-1.84-12.1-5.26-9.44-13.13,2.95-8.72,9.65-7.02,16.47-4.62,22.38,7.87,40.95,21.16,55.33,39.83,36.71,47.65,33.76,112.67-6.7,157.05-1.81,1.99-3.53,4.07-6.08,7Z"/>
</svg>