<?xml version="1.0" encoding="UTF-8"?>
<svg id="Capa_2" data-name="Capa 2" xmlns="http://www.w3.org/2000/svg" viewBox="0 0 32.04 32.04">
  <defs>
    <style>
      .cls-1 {
        fill: #fff;
      }
    </style>
  </defs>
  <path class="cls-1" d="m21.66,27.17h-7.82v-7.17c-1.63.56-3.09,1.02-4.5,1.6-.22.09-.33.67-.34,1.03-.04,1.48-.02,2.95-.02,4.51H1.02V5.01h7.9v11.48c1.6-.29,3.05-.51,4.46-.86.21-.05.39-.71.4-1.09.03-2.72.02-5.44.02-8.16,0-.43,0-.87,0-1.39h7.84v9.48c1.61-.17,3.06-.32,4.75-.5-.31-.5-.51-.81-.76-1.21.3-.06.69-.24.8-.13,1.01,1.05,2.44.47,3.57.96.52.23.91.74,1.36,1.12-.39.44-.74.94-1.2,1.29-.33.25-.83.25-1.23.43-.62.27-1.21.61-1.83.88-.29.13-.62.18-1.19.33.28-.57.43-.88.74-1.52-1.77.49-3.25.87-4.69,1.36-.19.07-.28.69-.28,1.05-.02,2.84-.01,5.67-.01,8.64Z"/>
</svg>